<svg width="259" height="56" viewBox="0 0 259 56" fill="none" xmlns="http://www.w3.org/2000/svg">
<path d="M43.2503 37C40.0503 33.7 38.4503 29.8 38.4503 25.5C38.4503 19.7 38.4503 14 38.4503 8.2C38.4503 8.1 38.4503 4.7 38.4503 2.2C34.3503 2.2 30.1503 2.2 26.0503 2.2C26.0503 2.5 26.0503 2.8 26.0503 3.1C26.0503 11.2 26.0503 19.2 26.0503 27.3C26.0503 33.3 27.7503 38.7 31.4503 43.4C35.4503 48.5 40.6503 51.7 47.1503 52.6C48.3503 52.8 49.5503 52.9 50.8503 53C50.8503 49.3 50.8503 45.7 50.8503 42C47.9503 40.9 45.4503 39.2 43.2503 37Z" fill="#16B4B5"/>
<path d="M4.55031 13.3C-1.44969 22.6 -1.54969 32.3 4.45031 41.7C9.15031 49.1 16.2503 52.7 25.0503 53C25.0503 36 25.0503 19.2 25.0503 2.1C16.3503 2.4 9.25031 6 4.55031 13.3Z" fill="#16B4B5"/>
<path d="M82.1 15.1L81 14.6C79.4 14 77.7 13.6 75.9 13.6C74.1 13.6 72.4 14 70.8 14.6C69.2 15.3 67.8 16.2 66.6 17.4C65.4 18.6 64.5 20 63.8 21.6C63.1 23.2 62.8 24.9 62.8 26.7C62.8 28.4 63.1 30.2 63.8 31.8C64.4 33.4 65.4 34.7 66.6 36C67.8 37.2 69.2 38.1 70.8 38.8C72.4 39.4 74.1 39.8 75.9 39.8C77.6 39.8 79.3 39.4 81 38.8C82.5 38.1 83.9 37.2 85.1 36C86.3 34.8 87.2 33.4 87.9 31.8C88.6 30.2 88.9 28.5 88.9 26.7V4.5L82.1 2.2V15.1ZM76 32.7C72.6 32.7 69.8 29.9 69.8 26.5C69.8 23.1 72.5 20.3 76 20.3C79.4 20.3 82.2 23.1 82.2 26.5C82.1 30 79.3 32.7 76 32.7Z" fill="black"/>
<path d="M95.5 17.6C94.1 19 93 20.6 92.3 22.3C91.5 24.1 91.1 26.1 91.1 28.1V39.3H97.9V28.1C97.9 23.7 101.5 20.1 105.9 20.1V13.3C103.9 13.3 102 13.7 100.2 14.4C98.4 15.1 96.9 16.2 95.5 17.6Z" fill="black"/>
<path d="M125.1 15C123.3 14.1 121.3 13.6 119.3 13.6C117.5 13.6 115.8 14 114.2 14.6C112.6 15.2 111.2 16.2 110 17.4C108.8 18.6 107.9 20 107.2 21.5C106.5 23.1 106.2 24.8 106.2 26.6C106.2 28.4 106.5 30.1 107.2 31.7C107.8 33.3 108.8 34.7 110 35.9C111.2 37.1 112.6 38 114.2 38.7C115.8 39.4 117.5 39.7 119.3 39.7C121.3 39.7 123.4 39.2 125.1 38.3V39.3H131.9V13.6H125.1V15ZM124.6 29.7C124.1 30.6 123.3 31.4 122.4 31.9C121.4 32.4 120.4 32.7 119.3 32.7C115.9 32.7 113.1 30 113.1 26.5C113.1 23.1 115.8 20.3 119.3 20.3C120.5 20.3 121.6 20.7 122.6 21.3C123.6 21.9 124.3 22.8 124.8 23.9C125.2 24.7 125.3 25.6 125.3 26.5C125.4 27.7 125.1 28.8 124.6 29.7Z" fill="black"/>
<path d="M157.6 20.3H164.8V13.9H157.6V5.8L150.7 8.1V14.1H142.5C142.5 10 145.8 6.8 149.8 6.8V0C147.9 0 146.1 0.399998 144.4 1.1C142.7 1.8 141.2 2.8 139.9 4.1C138.6 5.4 137.6 6.9 136.9 8.6C136.2 10.3 135.8 12.2 135.8 14.1V39.4H142.6V20.4L157.6 20.3Z" fill="black"/>
<path d="M181.7 27C183.8 24.9 185.2 23 186.1 21.2C187.1 19.4 187.5 17.5 187.5 15.4C187.5 13.8 187.2 12.3 186.6 10.9C186 9.6 185.1 8.4 184.1 7.4C182 5.6 179.3 4.6 176.3 4.6C173.7 4.6 171.3 5.2 169.4 6.5C167.6 7.7 166.2 9.3 165.2 11.4L164.6 12.6L170.1 16.4L170.9 14.8C172.1 12.5 173.8 11.4 176.2 11.4C177.5 11.4 178.5 11.8 179.3 12.6C180.1 13.4 180.5 14.5 180.5 15.8C180.5 16.9 180.1 18 179.4 19.3C178.6 20.6 177.4 21.9 176.3 23.1L165 34.5V32.5C161 32.5 157.8 29.3 157.8 25.2V23.5H150.9V25.2C150.9 27.1 151.3 29 152 30.8C152.7 32.4 153.7 33.9 155.1 35.3C156.4 36.5 157.9 37.6 159.6 38.3C161.3 39 163.2 39.3 165 39.3H188V32.6H176.2L181.7 27Z" fill="#16B4B5"/>
<path d="M190.5 39.3H197.4V2.5L190.5 4.8V39.3Z" fill="black"/>
<path d="M228.4 13.9L222.6 28.6L216.9 13.9H201.7V20.3H212L219.7 39.3H225.4L235.8 13.9H228.4Z" fill="black"/>
<path d="M208.6 26.7H201.7V39.3H208.6V26.7Z" fill="black"/>
<path d="M258.7 26.6C258.7 23.1 257.4 19.9 254.9 17.5C252.5 15.1 249.2 13.8 245.8 13.8C242.4 13.8 239.1 15.1 236.7 17.5C234.3 20 232.9 23.2 232.9 26.6C232.9 30 234.3 33.3 236.7 35.7C239.1 38.1 242.4 39.4 245.8 39.4C247.6 39.4 249.4 39 251 38.4C252.6 37.7 254 36.7 255.2 35.4L250.4 30.8C249.2 32.1 247.6 32.8 245.8 32.8C243.6 32.8 241.6 31.7 240.5 29.9H258.7V26.6ZM240.5 23.3C241.6 21.6 243.6 20.4 245.8 20.4C248 20.4 250 21.6 251.1 23.3H240.5Z" fill="black"/>
<path d="M76.1 44.9L72.2 53.2H72.9L76.4 45.6L79.8 53.2H80.5L76.7 44.9H76.1Z" fill="black"/>
<path d="M82.6 44.9H82V53.2H82.6V44.9Z" fill="black"/>
<path d="M87.9 49.7H84.8V50.2H87.9V49.7Z" fill="black"/>
<path d="M91.7 52.7C91.3 52.7 91 52.6 90.8 52.4C90.6 52.2 90.5 51.9 90.5 51.5V47.5H92.5V47H90.5V45.6H89.9V47H88.8V47.5H89.9V51.5C89.9 52 90 52.4 90.3 52.7C90.6 53 91 53.2 91.5 53.2C91.7 53.2 92 53.2 92.2 53.1C92.4 53 92.6 52.9 92.8 52.8L92.6 52.4C92.4 52.6 92.1 52.7 91.7 52.7Z" fill="black"/>
<path d="M98.6 47.4C98.1 47.1 97.6 47 97 47C96.4 47 95.9 47.1 95.4 47.4C94.9 47.7 94.6 48 94.3 48.5C94 49 93.9 49.5 93.9 50.1C93.9 50.7 94 51.2 94.3 51.7C94.6 52.2 94.9 52.6 95.4 52.8C95.9 53.1 96.4 53.2 97 53.2C97.6 53.2 98.1 53.1 98.6 52.8C99.1 52.5 99.4 52.2 99.7 51.7C100 51.2 100.1 50.7 100.1 50.1C100.1 49.5 100 49 99.7 48.5C99.4 48 99 47.6 98.6 47.4ZM99.1 51.5C98.9 51.9 98.6 52.2 98.2 52.4C97.8 52.6 97.4 52.7 96.9 52.7C96.4 52.7 96 52.6 95.6 52.4C95.2 52.2 94.9 51.9 94.7 51.5C94.5 51.1 94.4 50.7 94.4 50.1C94.4 49.6 94.5 49.1 94.7 48.7C94.9 48.3 95.2 48 95.6 47.8C96 47.6 96.4 47.5 96.9 47.5C97.4 47.5 97.8 47.6 98.2 47.8C98.6 48 98.9 48.3 99.1 48.7C99.3 49.1 99.4 49.5 99.4 50.1C99.5 50.6 99.4 51.1 99.1 51.5Z" fill="black"/>
<path d="M104.5 49.7H101.4V50.2H104.5V49.7Z" fill="black"/>
<path d="M108.3 45.9C108.9 45.6 109.5 45.4 110.2 45.4C111.2 45.4 112.1 45.7 112.8 46.4L113.2 46C112.8 45.6 112.4 45.3 111.9 45.1C111.4 44.9 110.8 44.8 110.2 44.8C109.4 44.8 108.7 45 108 45.3C107.3 45.7 106.8 46.2 106.5 46.8C106.1 47.4 105.9 48.2 105.9 49C105.9 49.8 106.1 50.5 106.5 51.2C106.9 51.8 107.4 52.3 108 52.7C108.7 53.1 109.4 53.2 110.2 53.2C110.8 53.2 111.4 53.1 111.9 52.9C112.4 52.7 112.8 52.4 113.2 52L112.8 51.6C112.1 52.3 111.3 52.6 110.2 52.6C109.5 52.6 108.9 52.4 108.3 52.1C107.7 51.8 107.3 51.3 107 50.8C106.7 50.2 106.5 49.6 106.5 48.9C106.5 48.2 106.7 47.6 107 47C107.2 46.6 107.7 46.2 108.3 45.9Z" fill="black"/>
<path d="M123.1 44.9L119.3 51.3L115.6 44.9H115.1V53.2H115.7V46.1L119.2 52.1H119.5L123 46.1V53.2H123.6V44.9H123.1Z" fill="black"/>
<path d="M130.3 49.2C129.9 49.1 129.4 48.9 128.8 48.8C128.3 48.7 127.8 48.5 127.5 48.4C127.2 48.3 126.9 48.1 126.7 47.9C126.5 47.7 126.4 47.4 126.4 47C126.4 46.5 126.6 46.1 127 45.8C127.4 45.5 128 45.3 128.7 45.3C129.1 45.3 129.5 45.4 129.9 45.5C130.3 45.6 130.7 45.8 131 46L131.2 45.5C130.9 45.3 130.5 45.1 130 45C129.6 44.9 129.1 44.8 128.6 44.8C127.9 44.8 127.4 44.9 127 45.1C126.6 45.3 126.2 45.6 126 45.9C125.8 46.2 125.7 46.6 125.7 47C125.7 47.5 125.8 47.9 126.1 48.2C126.3 48.5 126.7 48.7 127 48.9C127.4 49 127.9 49.2 128.5 49.3C129 49.4 129.5 49.5 129.8 49.7C130.1 49.8 130.4 50 130.6 50.2C130.8 50.4 130.9 50.7 130.9 51.1C130.9 51.6 130.7 52 130.3 52.3C129.9 52.6 129.3 52.8 128.5 52.8C128 52.8 127.4 52.7 126.9 52.5C126.4 52.3 126 52.1 125.7 51.8L125.4 52.3C125.7 52.6 126.1 52.9 126.7 53.1C127.2 53.3 127.8 53.4 128.4 53.4C129.1 53.4 129.6 53.3 130.1 53.1C130.6 52.9 130.9 52.6 131.1 52.3C131.3 52 131.4 51.6 131.4 51.2C131.4 50.7 131.3 50.3 131 50C131 49.6 130.7 49.4 130.3 49.2Z" fill="black"/>
<path d="M141.2 47.4C140.7 47.1 140.2 47 139.6 47C139 47 138.5 47.1 138.1 47.4C137.6 47.7 137.3 48 137.1 48.5V47H136.5V55.5H137.1V51.8C137.3 52.3 137.7 52.6 138.1 52.9C138.5 53.2 139 53.3 139.6 53.3C140.2 53.3 140.7 53.2 141.2 52.9C141.7 52.6 142 52.3 142.3 51.8C142.6 51.3 142.7 50.8 142.7 50.2C142.7 49.6 142.6 49 142.3 48.6C142.1 48 141.7 47.6 141.2 47.4ZM141.8 51.5C141.6 51.9 141.3 52.2 140.9 52.4C140.5 52.6 140.1 52.7 139.6 52.7C139.1 52.7 138.7 52.6 138.3 52.4C137.9 52.2 137.6 51.9 137.4 51.5C137.2 51.1 137.1 50.7 137.1 50.1C137.1 49.6 137.2 49.1 137.4 48.7C137.6 48.3 137.9 48 138.3 47.8C138.7 47.6 139.1 47.5 139.6 47.5C140.1 47.5 140.5 47.6 140.9 47.8C141.3 48 141.6 48.3 141.8 48.7C142 49.1 142.1 49.5 142.1 50.1C142.1 50.6 142 51.1 141.8 51.5Z" fill="black"/>
<path d="M149.4 50.3C149.4 51 149.2 51.6 148.8 52.1C148.4 52.5 147.8 52.8 147.1 52.8C146.4 52.8 145.9 52.6 145.6 52.3C145.2 51.9 145.1 51.4 145.1 50.7V47.1H144.5V50.7C144.5 51.5 144.7 52.2 145.2 52.6C145.7 53.1 146.3 53.3 147.1 53.3C147.6 53.3 148.1 53.2 148.5 52.9C148.9 52.7 149.2 52.3 149.4 51.9V53.2H150V47H149.4V50.3Z" fill="black"/>
<path d="M157.2 47.3C156.7 47 156.2 46.9 155.6 46.9C155.1 46.9 154.6 47 154.1 47.3C153.7 47.6 153.3 47.9 153.1 48.4V44.4H152.5V53.2H153.1V51.7C153.3 52.2 153.7 52.5 154.1 52.8C154.5 53.1 155 53.2 155.6 53.2C156.2 53.2 156.7 53.1 157.2 52.8C157.7 52.5 158 52.2 158.3 51.7C158.6 51.2 158.7 50.7 158.7 50.1C158.7 49.5 158.6 48.9 158.3 48.5C158 48 157.7 47.6 157.2 47.3ZM157.8 51.5C157.6 51.9 157.3 52.2 156.9 52.4C156.5 52.6 156.1 52.7 155.6 52.7C155.1 52.7 154.7 52.6 154.3 52.4C153.9 52.2 153.6 51.9 153.4 51.5C153.2 51.1 153.1 50.7 153.1 50.1C153.1 49.6 153.2 49.1 153.4 48.7C153.6 48.3 153.9 48 154.3 47.8C154.7 47.6 155.1 47.5 155.6 47.5C156.1 47.5 156.5 47.6 156.9 47.8C157.3 48 157.6 48.3 157.8 48.7C158 49.1 158.1 49.5 158.1 50.1C158.1 50.6 158 51.1 157.8 51.5Z" fill="black"/>
<path d="M161.1 44.4H160.5V53.2H161.1V44.4Z" fill="black"/>
<path d="M163.9 44.5C163.8 44.5 163.7 44.5 163.6 44.6C163.5 44.7 163.5 44.8 163.5 44.9C163.5 45 163.5 45.1 163.6 45.2C163.7 45.3 163.8 45.3 163.9 45.3C164 45.3 164.1 45.3 164.2 45.2C164.3 45.1 164.3 45 164.3 44.9C164.3 44.8 164.3 44.7 164.2 44.6C164.2 44.6 164.1 44.5 163.9 44.5Z" fill="black"/>
<path d="M164.2 47H163.6V53.2H164.2V47Z" fill="black"/>
<path d="M169.7 50.1C169.4 50 169 49.9 168.5 49.8C168.1 49.7 167.7 49.6 167.5 49.6C167.3 49.5 167 49.4 166.9 49.3C166.7 49.1 166.7 48.9 166.7 48.7C166.7 48.4 166.8 48.1 167.1 47.9C167.4 47.7 167.8 47.6 168.4 47.6C168.7 47.6 169.1 47.6 169.4 47.7C169.7 47.8 170 47.9 170.3 48.1L170.6 47.6C170.4 47.4 170 47.3 169.7 47.2C169.3 47.1 168.9 47 168.5 47C167.8 47 167.2 47.2 166.8 47.5C166.4 47.8 166.2 48.2 166.2 48.7C166.2 49.1 166.3 49.4 166.5 49.6C166.7 49.8 167 50 167.3 50.1C167.6 50.2 168 50.3 168.5 50.4C168.9 50.5 169.2 50.6 169.5 50.6C169.8 50.6 169.9 50.8 170.1 50.9C170.3 51.1 170.3 51.3 170.3 51.5C170.3 51.9 170.2 52.2 169.9 52.4C169.6 52.6 169.1 52.7 168.5 52.7C168.1 52.7 167.6 52.6 167.3 52.5C166.9 52.4 166.6 52.2 166.3 52L166 52.5C166.2 52.7 166.6 52.9 167.1 53.1C167.6 53.3 168 53.3 168.5 53.3C169.3 53.3 169.9 53.1 170.3 52.8C170.7 52.5 170.9 52.1 170.9 51.6C170.9 51.2 170.8 50.9 170.6 50.7C170.2 50.4 170 50.3 169.7 50.1Z" fill="black"/>
<path d="M175.4 47C174.8 47 174.3 47.1 173.9 47.3C173.5 47.5 173.2 47.9 173 48.3V44.4H172.4V53.2H173V49.9C173 49.2 173.2 48.6 173.6 48.1C174 47.7 174.6 47.4 175.3 47.4C175.9 47.4 176.4 47.6 176.8 47.9C177.1 48.3 177.3 48.8 177.3 49.5V53.1H177.9V49.5C177.9 48.7 177.7 48 177.2 47.6C176.7 47.2 176.2 47 175.4 47Z" fill="black"/>
<path d="M180.7 44.5C180.6 44.5 180.5 44.5 180.4 44.6C180.3 44.7 180.3 44.8 180.3 44.9C180.3 45 180.3 45.1 180.4 45.2C180.5 45.3 180.6 45.3 180.7 45.3C180.8 45.3 180.9 45.3 181 45.2C181.1 45.1 181.1 45 181.1 44.9C181.1 44.8 181.1 44.7 181 44.6C181 44.6 180.8 44.5 180.7 44.5Z" fill="black"/>
<path d="M181 47H180.4V53.2H181V47Z" fill="black"/>
<path d="M186.5 47C185.9 47 185.4 47.1 185 47.4C184.6 47.6 184.3 48 184 48.4V47.1H183.4V53.3H184V50C184 49.3 184.2 48.7 184.6 48.2C185 47.8 185.6 47.5 186.3 47.5C186.9 47.5 187.4 47.7 187.8 48C188.1 48.4 188.3 48.9 188.3 49.6V53.2H188.9V49.6C188.9 48.8 188.7 48.1 188.2 47.7C187.7 47.3 187.3 47 186.5 47Z" fill="black"/>
<path d="M196.5 47V48.4C196.3 47.9 195.9 47.6 195.4 47.3C194.9 47.1 194.4 46.9 193.9 46.9C193.3 46.9 192.8 47 192.3 47.3C191.8 47.5 191.5 47.9 191.2 48.4C190.9 48.9 190.8 49.4 190.8 50C190.8 50.6 190.9 51.1 191.2 51.6C191.5 52.1 191.8 52.4 192.3 52.7C192.8 53 193.3 53.1 193.9 53.1C194.5 53.1 195 53 195.4 52.7C195.9 52.5 196.2 52.1 196.5 51.7V52.7C196.5 53.5 196.3 54.1 195.9 54.5C195.5 54.9 194.9 55.1 194.1 55.1C193.6 55.1 193.2 55 192.7 54.9C192.3 54.7 191.9 54.5 191.6 54.2L191.3 54.7C191.6 55 192 55.2 192.5 55.4C193 55.6 193.5 55.7 194.1 55.7C195.1 55.7 195.9 55.5 196.4 55C196.9 54.5 197.1 53.8 197.1 52.7V47.2H196.5V47ZM196.2 51.2C196 51.6 195.7 51.9 195.3 52.1C194.9 52.3 194.5 52.4 194 52.4C193.5 52.4 193.1 52.3 192.7 52.1C192.3 51.9 192 51.6 191.8 51.2C191.6 50.8 191.5 50.4 191.5 49.9C191.5 49.4 191.6 49 191.8 48.6C192 48.2 192.3 47.9 192.7 47.7C193.1 47.5 193.5 47.4 194 47.4C194.5 47.4 194.9 47.5 195.3 47.7C195.7 47.9 196 48.2 196.2 48.6C196.4 49 196.5 49.4 196.5 49.9C196.5 50.4 196.4 50.9 196.2 51.2Z" fill="black"/>
</svg>
