<?xml version="1.0" encoding="utf-8"?>
<!-- Generator: Adobe Illustrator 27.8.1, SVG Export Plug-In . SVG Version: 6.00 Build 0)  -->
<svg version="1.1" id="Layer_1" xmlns="http://www.w3.org/2000/svg" xmlns:xlink="http://www.w3.org/1999/xlink" x="0px" y="0px"
	 viewBox="0 0 346.5 194.9" style="enable-background:new 0 0 346.5 194.9;" xml:space="preserve">
<g>
	<path d="M93,108.2c-3.2-3.3-4.8-7.2-4.8-11.5c0-5.8,0-11.5,0-17.3c0-0.1,0-3.5,0-6c-4.1,0-8.3,0-12.4,0c0,0.3,0,0.6,0,0.9
		c0,8.1,0,16.1,0,24.2c0,6,1.7,11.4,5.4,16.1c4,5.1,9.2,8.3,15.7,9.2c1.2,0.2,2.4,0.3,3.7,0.4c0-3.7,0-7.3,0-11
		C97.7,112.1,95.2,110.4,93,108.2z"/>
	<path d="M54.3,84.5c-6,9.3-6.1,19-0.1,28.4c4.7,7.4,11.8,11,20.6,11.3c0-17,0-33.8,0-50.9C66.1,73.6,59,77.2,54.3,84.5z"/>
</g>
<g>
	<path d="M121.1,85l-1.1-0.5c-1.6-0.6-3.3-1-5.1-1s-3.5,0.4-5.1,1c-1.6,0.7-3,1.6-4.2,2.8c-1.2,1.2-2.1,2.6-2.8,4.2s-1,3.3-1,5.1
		c0,1.7,0.3,3.5,1,5.1c0.6,1.6,1.6,2.9,2.8,4.2c1.2,1.2,2.6,2.1,4.2,2.8c1.6,0.6,3.3,1,5.1,1c1.7,0,3.4-0.4,5.1-1
		c1.5-0.7,2.9-1.6,4.1-2.8c1.2-1.2,2.1-2.6,2.8-4.2s1-3.3,1-5.1V74.4l-6.8-2.3V85z M115,102.6c-3.4,0-6.2-2.8-6.2-6.2
		s2.7-6.2,6.2-6.2c3.4,0,6.2,2.8,6.2,6.2C121.1,99.9,118.3,102.6,115,102.6z"/>
	<path d="M134.5,87.5c-1.4,1.4-2.5,3-3.2,4.7c-0.8,1.8-1.2,3.8-1.2,5.8v11.2h6.8V98c0-4.4,3.6-8,8-8v-6.8c-2,0-3.9,0.4-5.7,1.1
		C137.4,85,135.9,86.1,134.5,87.5z"/>
	<path d="M164.1,84.9c-1.8-0.9-3.8-1.4-5.8-1.4c-1.8,0-3.5,0.4-5.1,1s-3,1.6-4.2,2.8c-1.2,1.2-2.1,2.6-2.8,4.1c-0.7,1.6-1,3.3-1,5.1
		c0,1.8,0.3,3.5,1,5.1c0.6,1.6,1.6,3,2.8,4.2s2.6,2.1,4.2,2.8c1.6,0.7,3.3,1,5.1,1c2,0,4.1-0.5,5.8-1.4v1h6.8V83.5h-6.8V84.9z
		 M163.6,99.6c-0.5,0.9-1.3,1.7-2.2,2.2c-1,0.5-2,0.8-3.1,0.8c-3.4,0-6.2-2.7-6.2-6.2c0-3.4,2.7-6.2,6.2-6.2c1.2,0,2.3,0.4,3.3,1
		s1.7,1.5,2.2,2.6c0.4,0.8,0.5,1.7,0.5,2.6C164.4,97.6,164.1,98.7,163.6,99.6z"/>
	<path d="M196.6,90.2h7.2v-6.4h-7.2v-8.1l-6.9,2.3v6h-8.2c0-4.1,3.3-7.3,7.3-7.3v-6.8c-1.9,0-3.7,0.4-5.4,1.1s-3.2,1.7-4.5,3
		s-2.3,2.8-3,4.5s-1.1,3.6-1.1,5.5v25.3h6.8v-19L196.6,90.2L196.6,90.2z"/>
	<path d="M220.7,96.9c2.1-2.1,3.5-4,4.4-5.8c1-1.8,1.4-3.7,1.4-5.8c0-1.6-0.3-3.1-0.9-4.5c-0.6-1.3-1.5-2.5-2.5-3.5
		c-2.1-1.8-4.8-2.8-7.8-2.8c-2.6,0-5,0.6-6.9,1.9c-1.8,1.2-3.2,2.8-4.2,4.9l-0.6,1.2l5.5,3.8l0.8-1.6c1.2-2.3,2.9-3.4,5.3-3.4
		c1.3,0,2.3,0.4,3.1,1.2c0.8,0.8,1.2,1.9,1.2,3.2c0,1.1-0.4,2.2-1.1,3.5c-0.8,1.3-2,2.6-3.1,3.8L204,104.4v-2c-4,0-7.2-3.2-7.2-7.3
		v-1.7h-6.9v1.7c0,1.9,0.4,3.8,1.1,5.6c0.7,1.6,1.7,3.1,3.1,4.5c1.3,1.2,2.8,2.3,4.5,3s3.6,1,5.4,1h23v-6.7h-11.8L220.7,96.9z"/>
	<polygon points="229.5,109.2 236.4,109.2 236.4,72.4 229.5,74.7 	"/>
	<polygon points="267.4,83.8 261.6,98.5 255.9,83.8 240.7,83.8 240.7,90.2 251,90.2 258.7,109.2 264.4,109.2 274.8,83.8 	"/>
	<rect x="240.7" y="96.6" width="6.9" height="12.6"/>
	<path d="M297.7,96.5c0-3.5-1.3-6.7-3.8-9.1c-2.4-2.4-5.7-3.7-9.1-3.7c-3.4,0-6.7,1.3-9.1,3.7c-2.4,2.5-3.8,5.7-3.8,9.1
		s1.4,6.7,3.8,9.1c2.4,2.4,5.7,3.7,9.1,3.7c1.8,0,3.6-0.4,5.2-1c1.6-0.7,3-1.7,4.2-3l-4.8-4.6c-1.2,1.3-2.8,2-4.6,2
		c-2.2,0-4.2-1.1-5.3-2.9h18.2L297.7,96.5L297.7,96.5z M279.5,93.2c1.1-1.7,3.1-2.9,5.3-2.9s4.2,1.2,5.3,2.9H279.5z"/>
</g>
<g>
	<polygon points="115.1,114.8 111.2,123.1 111.9,123.1 115.4,115.5 118.8,123.1 119.5,123.1 115.7,114.8 	"/>
	<rect x="121" y="114.8" width="0.6" height="8.3"/>
	<rect x="123.8" y="119.6" width="3.1" height="0.5"/>
	<path d="M130.7,122.6c-0.4,0-0.7-0.1-0.9-0.3c-0.2-0.2-0.3-0.5-0.3-0.9v-4h2v-0.5h-2v-1.4h-0.6v1.4h-1.1v0.5h1.1v4
		c0,0.5,0.1,0.9,0.4,1.2c0.3,0.3,0.7,0.5,1.2,0.5c0.2,0,0.5,0,0.7-0.1s0.4-0.2,0.6-0.3l-0.2-0.4
		C131.4,122.5,131.1,122.6,130.7,122.6z"/>
	<path d="M137.6,117.3c-0.5-0.3-1-0.4-1.6-0.4s-1.1,0.1-1.6,0.4s-0.8,0.6-1.1,1.1s-0.4,1-0.4,1.6s0.1,1.1,0.4,1.6
		c0.3,0.5,0.6,0.9,1.1,1.1c0.5,0.3,1,0.4,1.6,0.4s1.1-0.1,1.6-0.4s0.8-0.6,1.1-1.1s0.4-1,0.4-1.6s-0.1-1.1-0.4-1.6
		C138.4,117.9,138,117.5,137.6,117.3z M138.1,121.4c-0.2,0.4-0.5,0.7-0.9,0.9c-0.4,0.2-0.8,0.3-1.3,0.3s-0.9-0.1-1.3-0.3
		c-0.4-0.2-0.7-0.5-0.9-0.9s-0.3-0.8-0.3-1.4c0-0.5,0.1-1,0.3-1.4s0.5-0.7,0.9-0.9c0.4-0.2,0.8-0.3,1.3-0.3s0.9,0.1,1.3,0.3
		c0.4,0.2,0.7,0.5,0.9,0.9s0.3,0.8,0.3,1.4C138.5,120.5,138.4,121,138.1,121.4z"/>
	<rect x="140.4" y="119.6" width="3.1" height="0.5"/>
	<path d="M147.3,115.8c0.6-0.3,1.2-0.5,1.9-0.5c1,0,1.9,0.3,2.6,1l0.4-0.4c-0.4-0.4-0.8-0.7-1.3-0.9c-0.5-0.2-1.1-0.3-1.7-0.3
		c-0.8,0-1.5,0.2-2.2,0.5c-0.7,0.4-1.2,0.9-1.5,1.5c-0.4,0.6-0.6,1.4-0.6,2.2s0.2,1.5,0.6,2.2c0.4,0.6,0.9,1.1,1.5,1.5
		c0.7,0.4,1.4,0.5,2.2,0.5c0.6,0,1.2-0.1,1.7-0.3c0.5-0.2,0.9-0.5,1.3-0.9l-0.4-0.4c-0.7,0.7-1.5,1-2.6,1c-0.7,0-1.3-0.2-1.9-0.5
		c-0.6-0.3-1-0.8-1.3-1.3c-0.3-0.6-0.5-1.2-0.5-1.9s0.2-1.3,0.5-1.9C146.2,116.5,146.7,116.1,147.3,115.8z"/>
	<polygon points="162.1,114.8 158.3,121.2 154.6,114.8 154.1,114.8 154.1,123.1 154.7,123.1 154.7,116 158.2,122 158.5,122 162,116 
		162,123.1 162.6,123.1 162.6,114.8 	"/>
	<path d="M169.3,119.1c-0.4-0.1-0.9-0.3-1.5-0.4c-0.5-0.1-1-0.3-1.3-0.4s-0.6-0.3-0.8-0.5s-0.3-0.5-0.3-0.9c0-0.5,0.2-0.9,0.6-1.2
		c0.4-0.3,1-0.5,1.7-0.5c0.4,0,0.8,0.1,1.2,0.2s0.8,0.3,1.1,0.5l0.2-0.5c-0.3-0.2-0.7-0.4-1.2-0.5c-0.4-0.1-0.9-0.2-1.4-0.2
		c-0.7,0-1.2,0.1-1.6,0.3c-0.4,0.2-0.8,0.5-1,0.8s-0.3,0.7-0.3,1.1c0,0.5,0.1,0.9,0.4,1.2c0.2,0.3,0.6,0.5,0.9,0.7
		c0.4,0.1,0.9,0.3,1.5,0.4c0.5,0.1,1,0.2,1.3,0.4c0.3,0.1,0.6,0.3,0.8,0.5s0.3,0.5,0.3,0.9c0,0.5-0.2,0.9-0.6,1.2
		c-0.4,0.3-1,0.5-1.8,0.5c-0.5,0-1.1-0.1-1.6-0.3c-0.5-0.2-0.9-0.4-1.2-0.7l-0.3,0.5c0.3,0.3,0.7,0.6,1.3,0.8
		c0.5,0.2,1.1,0.3,1.7,0.3c0.7,0,1.2-0.1,1.7-0.3c0.5-0.2,0.8-0.5,1-0.8s0.3-0.7,0.3-1.1c0-0.5-0.1-0.9-0.4-1.2
		C170,119.5,169.7,119.3,169.3,119.1z"/>
	<path d="M180.2,117.3c-0.5-0.3-1-0.4-1.6-0.4s-1.1,0.1-1.5,0.4c-0.5,0.3-0.8,0.6-1,1.1v-1.5h-0.6v8.5h0.6v-3.7
		c0.2,0.5,0.6,0.8,1,1.1c0.4,0.3,0.9,0.4,1.5,0.4s1.1-0.1,1.6-0.4s0.8-0.6,1.1-1.1s0.4-1,0.4-1.6s-0.1-1.2-0.4-1.6
		C181.1,117.9,180.7,117.5,180.2,117.3z M180.8,121.4c-0.2,0.4-0.5,0.7-0.9,0.9c-0.4,0.2-0.8,0.3-1.3,0.3s-0.9-0.1-1.3-0.3
		c-0.4-0.2-0.7-0.5-0.9-0.9s-0.3-0.8-0.3-1.4c0-0.5,0.1-1,0.3-1.4s0.5-0.7,0.9-0.9c0.4-0.2,0.8-0.3,1.3-0.3s0.9,0.1,1.3,0.3
		s0.7,0.5,0.9,0.9s0.3,0.8,0.3,1.4C181.1,120.5,181,121,180.8,121.4z"/>
	<path d="M188.4,120.2c0,0.7-0.2,1.3-0.6,1.8c-0.4,0.4-1,0.7-1.7,0.7s-1.2-0.2-1.5-0.5c-0.4-0.4-0.5-0.9-0.5-1.6V117h-0.6v3.6
		c0,0.8,0.2,1.5,0.7,1.9c0.5,0.5,1.1,0.7,1.9,0.7c0.5,0,1-0.1,1.4-0.4c0.4-0.2,0.7-0.6,0.9-1v1.3h0.6v-6.2h-0.6L188.4,120.2
		L188.4,120.2z"/>
	<path d="M196.2,117.2c-0.5-0.3-1-0.4-1.6-0.4c-0.5,0-1,0.1-1.5,0.4c-0.4,0.3-0.8,0.6-1,1.1v-4h-0.6v8.8h0.6v-1.5
		c0.2,0.5,0.6,0.8,1,1.1c0.4,0.3,0.9,0.4,1.5,0.4s1.1-0.1,1.6-0.4s0.8-0.6,1.1-1.1s0.4-1,0.4-1.6s-0.1-1.2-0.4-1.6
		C197,117.9,196.7,117.5,196.2,117.2z M196.8,121.4c-0.2,0.4-0.5,0.7-0.9,0.9c-0.4,0.2-0.8,0.3-1.3,0.3s-0.9-0.1-1.3-0.3
		c-0.4-0.2-0.7-0.5-0.9-0.9s-0.3-0.8-0.3-1.4c0-0.5,0.1-1,0.3-1.4s0.5-0.7,0.9-0.9c0.4-0.2,0.8-0.3,1.3-0.3s0.9,0.1,1.3,0.3
		s0.7,0.5,0.9,0.9s0.3,0.8,0.3,1.4C197.1,120.5,197,121,196.8,121.4z"/>
	<rect x="199.5" y="114.3" width="0.6" height="8.8"/>
	<path d="M202.9,114.4c-0.1,0-0.2,0-0.3,0.1s-0.1,0.2-0.1,0.3c0,0.1,0,0.2,0.1,0.3c0.1,0.1,0.2,0.1,0.3,0.1s0.2,0,0.3-0.1
		s0.1-0.2,0.1-0.3c0-0.1,0-0.2-0.1-0.3C203.2,114.5,203.1,114.4,202.9,114.4z"/>
	<rect x="202.6" y="116.9" width="0.6" height="6.2"/>
	<path d="M208.7,120c-0.3-0.1-0.7-0.2-1.2-0.3c-0.4-0.1-0.8-0.2-1-0.2c-0.2-0.1-0.5-0.2-0.6-0.3c-0.2-0.2-0.2-0.4-0.2-0.6
		c0-0.3,0.1-0.6,0.4-0.8c0.3-0.2,0.7-0.3,1.3-0.3c0.3,0,0.7,0,1,0.1s0.6,0.2,0.9,0.4l0.3-0.5c-0.2-0.2-0.6-0.3-0.9-0.4
		c-0.4-0.1-0.8-0.2-1.2-0.2c-0.7,0-1.3,0.2-1.7,0.5s-0.6,0.7-0.6,1.2c0,0.4,0.1,0.7,0.3,0.9c0.2,0.2,0.5,0.4,0.8,0.5
		s0.7,0.2,1.2,0.3c0.4,0.1,0.7,0.2,1,0.2s0.4,0.2,0.6,0.3c0.2,0.2,0.2,0.4,0.2,0.6c0,0.4-0.1,0.7-0.4,0.9c-0.3,0.2-0.8,0.3-1.4,0.3
		c-0.4,0-0.9-0.1-1.2-0.2c-0.4-0.1-0.7-0.3-1-0.5l-0.3,0.5c0.2,0.2,0.6,0.4,1.1,0.6s0.9,0.2,1.4,0.2c0.8,0,1.4-0.2,1.8-0.5
		s0.6-0.7,0.6-1.2c0-0.4-0.1-0.7-0.3-0.9C209.2,120.3,209,120.2,208.7,120z"/>
	<path d="M214.4,116.9c-0.6,0-1.1,0.1-1.5,0.3c-0.4,0.2-0.7,0.6-0.9,1v-3.9h-0.6v8.8h0.6v-3.3c0-0.7,0.2-1.3,0.6-1.8
		c0.4-0.4,1-0.7,1.7-0.7c0.6,0,1.1,0.2,1.5,0.5c0.3,0.4,0.5,0.9,0.5,1.6v3.6h0.6v-3.6c0-0.8-0.2-1.5-0.7-1.9
		S215.2,116.9,214.4,116.9z"/>
	<path d="M219.7,114.4c-0.1,0-0.2,0-0.3,0.1s-0.1,0.2-0.1,0.3c0,0.1,0,0.2,0.1,0.3c0.1,0.1,0.2,0.1,0.3,0.1s0.2,0,0.3-0.1
		s0.1-0.2,0.1-0.3c0-0.1,0-0.2-0.1-0.3C220,114.5,219.8,114.4,219.7,114.4z"/>
	<rect x="219.4" y="116.9" width="0.6" height="6.2"/>
	<path d="M225.5,116.9c-0.6,0-1.1,0.1-1.5,0.4c-0.4,0.2-0.7,0.6-1,1V117h-0.6v6.2h0.6v-3.3c0-0.7,0.2-1.3,0.6-1.8
		c0.4-0.4,1-0.7,1.7-0.7c0.6,0,1.1,0.2,1.5,0.5c0.3,0.4,0.5,0.9,0.5,1.6v3.6h0.6v-3.6c0-0.8-0.2-1.5-0.7-1.9
		S226.3,116.9,225.5,116.9z"/>
	<path d="M235.5,116.9v1.4c-0.2-0.5-0.6-0.8-1.1-1.1c-0.5-0.2-1-0.4-1.5-0.4c-0.6,0-1.1,0.1-1.6,0.4c-0.5,0.2-0.8,0.6-1.1,1.1
		s-0.4,1-0.4,1.6s0.1,1.1,0.4,1.6c0.3,0.5,0.6,0.8,1.1,1.1c0.5,0.3,1,0.4,1.6,0.4s1.1-0.1,1.5-0.4c0.5-0.2,0.8-0.6,1.1-1v1
		c0,0.8-0.2,1.4-0.6,1.8c-0.4,0.4-1,0.6-1.8,0.6c-0.5,0-0.9-0.1-1.4-0.2c-0.4-0.2-0.8-0.4-1.1-0.7l-0.3,0.5c0.3,0.3,0.7,0.5,1.2,0.7
		s1,0.3,1.6,0.3c1,0,1.8-0.2,2.3-0.7s0.7-1.2,0.7-2.3v-5.5h-0.6V116.9z M235.2,121.1c-0.2,0.4-0.5,0.7-0.9,0.9
		c-0.4,0.2-0.8,0.3-1.3,0.3s-0.9-0.1-1.3-0.3c-0.4-0.2-0.7-0.5-0.9-0.9s-0.3-0.8-0.3-1.3s0.1-0.9,0.3-1.3s0.5-0.7,0.9-0.9
		c0.4-0.2,0.8-0.3,1.3-0.3s0.9,0.1,1.3,0.3c0.4,0.2,0.7,0.5,0.9,0.9s0.3,0.8,0.3,1.3S235.4,120.8,235.2,121.1z"/>
</g>
</svg>
