<svg xmlns="http://www.w3.org/2000/svg" width="1200" height="630" viewBox="0 0 1200 630" fill="none">
  <defs>
    <linearGradient id="bg" x1="0" y1="0" x2="1200" y2="630" gradientUnits="userSpaceOnUse">
      <stop offset="0%" stop-color="#002365"/>
      <stop offset="100%" stop-color="#031931"/>
    </linearGradient>
    <radialGradient id="glow" cx="50%" cy="50%" r="50%">
      <stop offset="0%" stop-color="#04b8b7" stop-opacity="0.18"/>
      <stop offset="100%" stop-color="#04b8b7" stop-opacity="0"/>
    </radialGradient>
    <pattern id="dots" x="0" y="0" width="40" height="40" patternUnits="userSpaceOnUse">
      <circle cx="2" cy="2" r="1.2" fill="#04b8b7" fill-opacity="0.08"/>
    </pattern>
  </defs>

  <rect width="1200" height="630" fill="url(#bg)"/>
  <rect width="1200" height="630" fill="url(#dots)"/>
  <ellipse cx="600" cy="340" rx="560" ry="280" fill="url(#glow)"/>

  <line x1="60" y1="60" x2="140" y2="60" stroke="#04b8b7" stroke-width="2" stroke-opacity="0.6"/>
  <line x1="60" y1="60" x2="60" y2="140" stroke="#04b8b7" stroke-width="2" stroke-opacity="0.6"/>
  <line x1="1140" y1="570" x2="1060" y2="570" stroke="#04b8b7" stroke-width="2" stroke-opacity="0.6"/>
  <line x1="1140" y1="570" x2="1140" y2="490" stroke="#04b8b7" stroke-width="2" stroke-opacity="0.6"/>

  <g transform="translate(60, 56) scale(1.35)">
    <path d="M43.2503 37C40.0503 33.7 38.4503 29.8 38.4503 25.5C38.4503 19.7 38.4503 14 38.4503 8.2C38.4503 8.1 38.4503 4.7 38.4503 2.2C34.3503 2.2 30.1503 2.2 26.0503 2.2C26.0503 2.5 26.0503 2.8 26.0503 3.1C26.0503 11.2 26.0503 19.2 26.0503 27.3C26.0503 33.3 27.7503 38.7 31.4503 43.4C35.4503 48.5 40.6503 51.7 47.1503 52.6C48.3503 52.8 49.5503 52.9 50.8503 53C50.8503 49.3 50.8503 45.7 50.8503 42C47.9503 40.9 45.4503 39.2 43.2503 37Z" fill="#04b8b7"/>
    <path d="M4.55031 13.3C-1.44969 22.6 -1.54969 32.3 4.45031 41.7C9.15031 49.1 16.2503 52.7 25.0503 53C25.0503 36 25.0503 19.2 25.0503 2.1C16.3503 2.4 9.25031 6 4.55031 13.3Z" fill="#04b8b7"/>
    <path d="M82.1 15.1L81 14.6C79.4 14 77.7 13.6 75.9 13.6C74.1 13.6 72.4 14 70.8 14.6C69.2 15.3 67.8 16.2 66.6 17.4C65.4 18.6 64.5 20 63.8 21.6C63.1 23.2 62.8 24.9 62.8 26.7C62.8 28.4 63.1 30.2 63.8 31.8C64.4 33.4 65.4 34.7 66.6 36C67.8 37.2 69.2 38.1 70.8 38.8C72.4 39.4 74.1 39.8 75.9 39.8C77.6 39.8 79.3 39.4 81 38.8C82.5 38.1 83.9 37.2 85.1 36C86.3 34.8 87.2 33.4 87.9 31.8C88.6 30.2 88.9 28.5 88.9 26.7V4.5L82.1 2.2V15.1ZM76 32.7C72.6 32.7 69.8 29.9 69.8 26.5C69.8 23.1 72.5 20.3 76 20.3C79.4 20.3 82.2 23.1 82.2 26.5C82.1 30 79.3 32.7 76 32.7Z" fill="white"/>
    <path d="M95.5 17.6C94.1 19 93 20.6 92.3 22.3C91.5 24.1 91.1 26.1 91.1 28.1V39.3H97.9V28.1C97.9 23.7 101.5 20.1 105.9 20.1V13.3C103.9 13.3 102 13.7 100.2 14.4C98.4 15.1 96.9 16.2 95.5 17.6Z" fill="white"/>
    <path d="M125.1 15C123.3 14.1 121.3 13.6 119.3 13.6C117.5 13.6 115.8 14 114.2 14.6C112.6 15.2 111.2 16.2 110 17.4C108.8 18.6 107.9 20 107.2 21.5C106.5 23.1 106.2 24.8 106.2 26.6C106.2 28.4 106.5 30.1 107.2 31.7C107.8 33.3 108.8 34.7 110 35.9C111.2 37.1 112.6 38 114.2 38.7C115.8 39.4 117.5 39.7 119.3 39.7C121.3 39.7 123.4 39.2 125.1 38.3V39.3H131.9V13.6H125.1V15ZM124.6 29.7C124.1 30.6 123.3 31.4 122.4 31.9C121.4 32.4 120.4 32.7 119.3 32.7C115.9 32.7 113.1 30 113.1 26.5C113.1 23.1 115.8 20.3 119.3 20.3C120.5 20.3 121.6 20.7 122.6 21.3C123.6 21.9 124.3 22.8 124.8 23.9C125.2 24.7 125.3 25.6 125.3 26.5C125.4 27.7 125.1 28.8 124.6 29.7Z" fill="white"/>
    <path d="M157.6 20.3H164.8V13.9H157.6V5.8L150.7 8.1V14.1H142.5C142.5 10 145.8 6.8 149.8 6.8V0C147.9 0 146.1 0.399998 144.4 1.1C142.7 1.8 141.2 2.8 139.9 4.1C138.6 5.4 137.6 6.9 136.9 8.6C136.2 10.3 135.8 12.2 135.8 14.1V39.4H142.6V20.4L157.6 20.3Z" fill="white"/>
    <path d="M181.7 27C183.8 24.9 185.2 23 186.1 21.2C187.1 19.4 187.5 17.5 187.5 15.4C187.5 13.8 187.2 12.3 186.6 10.9C186 9.6 185.1 8.4 184.1 7.4C182 5.6 179.3 4.6 176.3 4.6C173.7 4.6 171.3 5.2 169.4 6.5C167.6 7.7 166.2 9.3 165.2 11.4L164.6 12.6L170.1 16.4L170.9 14.8C172.1 12.5 173.8 11.4 176.2 11.4C177.5 11.4 178.5 11.8 179.3 12.6C180.1 13.4 180.5 14.5 180.5 15.8C180.5 16.9 180.1 18 179.4 19.3C178.6 20.6 177.4 21.9 176.3 23.1L165 34.5V32.5C161 32.5 157.8 29.3 157.8 25.2V23.5H150.9V25.2C150.9 27.1 151.3 29 152 30.8C152.7 32.4 153.7 33.9 155.1 35.3C156.4 36.5 157.9 37.6 159.6 38.3C161.3 39 163.2 39.3 165 39.3H188V32.6H176.2L181.7 27Z" fill="white"/>
    <path d="M190.5 39.3H197.4V2.5L190.5 4.8V39.3Z" fill="white"/>
    <path d="M228.4 13.9L222.6 28.6L216.9 13.9H201.7V20.3H212L219.7 39.3H225.4L235.8 13.9H228.4Z" fill="white"/>
    <path d="M208.6 26.7H201.7V39.3H208.6V26.7Z" fill="white"/>
    <path d="M258.7 26.6C258.7 23.1 257.4 19.9 254.9 17.5C252.5 15.1 249.2 13.8 245.8 13.8C242.4 13.8 239.1 15.1 236.7 17.5C234.3 20 232.9 23.2 232.9 26.6C232.9 30 234.3 33.3 236.7 35.7C239.1 38.1 242.4 39.4 245.8 39.4C247.6 39.4 249.4 39 251 38.4C252.6 37.7 254 36.7 255.2 35.4L250.4 30.8C249.2 32.1 247.6 32.8 245.8 32.8C243.6 32.8 241.6 31.7 240.5 29.9H258.7V26.6ZM240.5 23.3C241.6 21.6 243.6 20.4 245.8 20.4C248 20.4 250 21.6 251.1 23.3H240.5Z" fill="white"/>
  </g>

  <g transform="translate(60, 220)">
    <rect x="0" y="0" width="8" height="8" fill="#04b8b7"/>
    <text x="22" y="8" font-family="Inter, Lato, Arial, sans-serif" font-size="18" font-weight="600" fill="#04b8b7" letter-spacing="3">ДВИЖОК ПУБЛИКАЦИИ AI-TO-CMS</text>
  </g>

  <text x="60" y="330" font-family="Inter, Lato, Arial, sans-serif" font-size="84" font-weight="900" fill="#ffffff" letter-spacing="-2">
    <tspan fill="#04b8b7">300</tspan><tspan fill="#ffffff"> статей.</tspan>
  </text>
  <text x="60" y="420" font-family="Inter, Lato, Arial, sans-serif" font-size="84" font-weight="900" fill="#ffffff" letter-spacing="-2">
    <tspan fill="#04b8b7">30</tspan><tspan fill="#ffffff"> стран.</tspan>
  </text>
  <text x="60" y="510" font-family="Inter, Lato, Arial, sans-serif" font-size="84" font-weight="900" fill="#ffffff" letter-spacing="-2">
    <tspan fill="#04b8b7">45</tspan><tspan fill="#ffffff"> языков.</tspan>
  </text>

  <text x="60" y="568" font-family="Inter, Lato, Arial, sans-serif" font-size="30" font-weight="400" fill="#e1e1e1">Один движок. Публикация и цитирование AI.</text>

  <line x1="60" y1="598" x2="200" y2="598" stroke="#04b8b7" stroke-width="2"/>
  <text x="60" y="588" font-family="'JetBrains Mono', 'Courier New', monospace" font-size="20" font-weight="500" fill="#04b8b7" letter-spacing="2">draft2live.ai</text>
</svg>
